# xmcd CD database file
#
# Track frame offsets:
#	183
#	43768
#	78545
#	103538
#	131158
#	175770
#
# Disc length: 2619 seconds
#
# Revision: 4
# Processed by: cddbd v1.5.2PL0 Copyright (c) Steve Scherf et al.
# Submitted via: CDex 1.51
#
DISCID=4a0a3906
DTITLE=Petrucciani Trio - Darn That Dream
DYEAR=1996
DGENRE=Jazz
TTITLE0=01.You don't know what love is
TTITLE1=02.Straight no chaser
TTITLE2=03.Corcovado
TTITLE3=04.Sometime ago
TTITLE4=05.Lover Man
TTITLE5=06.Darn that dream
EXTD=YEAR: 1996
EXTT0=
EXTT1=
EXTT2=
EXTT3=
EXTT4=
EXTT5=
PLAYORDER=
